<svg xmlns="http://www.w3.org/2000/svg" viewBox="0 0 1920 1265.8917236">
<style type="text/css">
	.st1{fill:none;stroke:#FFFFFF;stroke-width:6;stroke-miterlimit:10;}
	.st2{fill:#FFFFFF;stroke:#FFFFFF;stroke-miterlimit:10;}
	.st3{fill:none;stroke:#FFFFFF;stroke-width:8;stroke-miterlimit:10;}
	.st4{fill:#FFFFFF;stroke:#FFFFFF;stroke-width:8;stroke-miterlimit:10;}
	.st5{fill:#FFFFFF;stroke:#FFFFFF;stroke-width:5;stroke-miterlimit:10;}
	.st6{fill:none;stroke:#FFFFFF;stroke-width:5;stroke-miterlimit:10;}
	.st7{fill:none;stroke:#000000;stroke-width:5;stroke-miterlimit:10;}
</style>
<g id="Layer_1">
	<g>
		<path class="st1" d="M207.359375,565.7285156v-125c0-0.9765625,0.2929688-1.7578125,0.8789062-2.34375
			s1.3671875-0.8789062,2.34375-0.8789062h2.9296875c1.4970703,0,2.9619141,0.9443359,4.3945312,2.8320312l60.4492188,85.8398438
			l18.9453125,29.1992188c-1.0419922-12.1728516-1.6938477-21.8413086-1.953125-29.0039062v-85.6445312
			c0-0.9765625,0.2929688-1.7578125,0.8789062-2.34375s1.3671875-0.8789062,2.34375-0.8789062h3.4179688
			c2.0830078,0,3.125,1.0742188,3.125,3.2226562v125c0,2.1484375-1.0419922,3.2226562-3.125,3.2226562h-3.8085938
			c-1.4985352,0-2.9633789-0.9423828-4.3945312-2.8320312L232.75,478.7167969l-17.3828125-25.78125
			c0.1298828,1.4985352,0.7158203,9.4404297,1.7578125,23.828125v88.9648438c0,0.9765625-0.2929688,1.7578125-0.8789062,2.34375
			s-1.3671875,0.8789062-2.34375,0.8789062h-3.3203125c-0.9765625,0-1.7578125-0.2929688-2.34375-0.8789062
			S207.359375,566.7050781,207.359375,565.7285156z"/>
		<path class="st1" d="M325.6210938,567.9716797c-0.1298828-0.3261719-0.1953125-0.6533203-0.1953125-0.9794922
			c0-0.4550781,0.0976562-0.9433594,0.2929688-1.4648438l54.0039062-128.6074219
			c0.6499023-1.4311523,1.6601562-2.1484375,3.0273438-2.1484375h1.5625c1.3671875,0,2.3759766,0.7172852,3.0273438,2.1484375
			l53.6132812,128.6132812c0.1953125,0.5224609,0.2929688,0.9765625,0.2929688,1.3671875
			c-0.0654297,0.390625-0.1630859,0.7490234-0.2929688,1.0742188c-0.390625,0.6513672-0.9443359,0.9765625-1.6601562,0.9765625
			h-4.5898438c-1.4326172,0-2.5390625-0.1630859-3.3203125-0.4892578c-0.78125-0.3271484-1.4008789-1.109375-1.8554688-2.3505859
			L417.125,535.6503906h-67.578125l-12.4023438,30.4609375c-0.5219727,1.2412109-1.1567383,2.0234375-1.9042969,2.3505859
			c-0.7490234,0.3261719-1.840332,0.4892578-3.2714844,0.4892578h-4.6875
			C326.5,568.9511719,325.9462891,568.625,325.6210938,567.9716797z M353.7460938,525.7871094h59.1796875l-23.2421875-57.03125
			l-6.1523438-16.796875l-6.25,16.796875L353.7460938,525.7871094z"/>
		<path class="st1" d="M460.875,565.7285156v-125c0-0.9765625,0.2929688-1.7578125,0.8789062-2.34375
			s1.3671875-0.8789062,2.34375-0.8789062h3.90625c0.9765625,0,1.7578125,0.2929688,2.34375,0.8789062
			s0.8789062,1.3671875,0.8789062,2.34375v125c0,0.9765625-0.2929688,1.7578125-0.8789062,2.34375
			s-1.3671875,0.8789062-2.34375,0.8789062h-3.90625c-0.9765625,0-1.7578125-0.2929688-2.34375-0.8789062
			S460.875,566.7050781,460.875,565.7285156z"/>
		<path class="st1" d="M511.4609375,565.7285156v-125c0-0.9765625,0.2929688-1.7578125,0.8789062-2.34375
			s1.3671875-0.8789062,2.34375-0.8789062H518.6875c2.0830078,0,3.125,1.0742188,3.125,3.2226562v117.3828125h66.9921875
			c0.9765625,0,1.7578125,0.2929688,2.34375,0.8789062s0.8789062,1.3671875,0.8789062,2.34375v4.3945312
			c0,0.9765625-0.2929688,1.7578125-0.8789062,2.34375s-1.3671875,0.8789062-2.34375,0.8789062h-74.1210938
			c-0.9765625,0-1.7578125-0.2929688-2.34375-0.8789062S511.4609375,566.7050781,511.4609375,565.7285156z"/>
		<path class="st1" d="M685.8745117,567.9716797c-0.1298828-0.3261719-0.1953125-0.6533203-0.1953125-0.9794922
			c0-0.4550781,0.0976562-0.9433594,0.2929688-1.4648438l54.0039062-128.6074219
			c0.6503906-1.4311523,1.6601562-2.1484375,3.0273438-2.1484375h1.5625c1.3671875,0,2.3759766,0.7172852,3.0273438,2.1484375
			l53.6132812,128.6132812c0.1953125,0.5224609,0.2929688,0.9765625,0.2929688,1.3671875
			c-0.0654297,0.390625-0.1630859,0.7490234-0.2929688,1.0742188c-0.390625,0.6513672-0.9443359,0.9765625-1.6601562,0.9765625
			h-4.5898438c-1.4326172,0-2.5390625-0.1630859-3.3203125-0.4892578c-0.78125-0.3271484-1.4003906-1.109375-1.8554688-2.3505859
			l-12.4023438-30.4609375h-67.578125l-12.4023438,30.4609375c-0.5214844,1.2412109-1.15625,2.0234375-1.9042969,2.3505859
			c-0.7490234,0.3261719-1.8398438,0.4892578-3.2714844,0.4892578h-4.6875
			C686.753418,568.9511719,686.199707,568.625,685.8745117,567.9716797z M713.9995117,525.7871094h59.1796875l-23.2421875-57.03125
			l-6.1523438-16.796875l-6.25,16.796875L713.9995117,525.7871094z"/>
		<path class="st1" d="M821.519043,565.7285156v-125c0-0.9765625,0.2910156-1.7578125,0.8769531-2.34375
			s1.3662109-0.8789062,2.3427734-0.8789062h29.9453125c7.0859375,0,13.4746094,0.6865234,19.1650391,2.0566406
			c5.6894531,1.3706055,10.4541016,3.2470703,14.2910156,5.6293945c3.8359375,2.3833008,7.0390625,5.2060547,9.6083984,8.4702148
			c2.5683594,3.2636719,4.4208984,6.7075195,5.5595703,10.3300781c1.1376953,3.6220703,1.7070312,7.4570312,1.7070312,11.503418
			c0,8.8959961-2.6445312,16.5239258-7.9326172,22.8867188c-5.2890625,6.362793-12.4101562,10.8110352-21.3642578,13.3422852
			l34.5703125,54.3945312c0.2597656,0.4560547,0.390625,0.8466797,0.390625,1.171875
			c0,0.2607422-0.0654297,0.5224609-0.1953125,0.78125c-0.2626953,0.5859375-0.7841797,0.8789062-1.5673828,0.8789062h-4.7958984
			c-2.0234375,0-3.3935547-0.1787109-4.1103516-0.5371094c-0.7167969-0.3564453-1.5-1.1865234-2.3486328-2.4902344
			l-29.1699219-47.1679688c-1.8232422-3.0595703-4.296875-4.5898438-7.421875-4.5898438h-29.1992188v51.5625
			c0,2.1484375-1.0419922,3.2226562-3.125,3.2226562h-4.0039062c-0.9765625,0-1.7578125-0.2929688-2.34375-0.8789062
			S821.519043,566.7050781,821.519043,565.7285156z M831.8706055,504.7910156h24.609375
			c12.5,0,21.9882812-2.6425781,28.4667969-7.9316406c6.4775391-5.2885742,9.7167969-12.409668,9.7167969-21.3637695
			c0-18.75-14.5185547-28.1264648-43.5546875-28.1264648h-19.2382812V504.7910156z"/>
		<path class="st1" d="M916.1479492,444.5917969v-4.3085938c0-0.8300781,0.2773438-1.5,0.8300781-2.0112305
			c0.5537109-0.5097656,1.2880859-0.7661133,2.2001953-0.7661133h92.0844727c1.9541016,0,2.9326172,0.9262695,2.9326172,2.7773438
			v4.3085938c0,1.8525391-0.9794922,2.7773438-2.9355469,2.7773438h-40.9121094v118.3554688
			c0,0.9775391-0.2910156,1.7607422-0.8710938,2.3466797c-0.5800781,0.5869141-1.3535156,0.8798828-2.3212891,0.8798828h-3.9667969
			c-0.9677734,0-1.7431641-0.2929688-2.3227539-0.8798828c-0.5800781-0.5859375-0.8701172-1.3691406-0.8701172-2.3466797
			V447.3691406h-40.8144531c-0.9140625,0-1.6474609-0.2548828-2.2011719-0.7661133
			C916.425293,446.09375,916.1479492,445.421875,916.1479492,444.5917969z"/>
		<path class="st1" d="M1072.984375,468.7192383c0-5.5922852,1.1015625-10.5834961,3.3085938-14.9736328
			c2.2060547-4.3896484,5.2060547-7.9511719,9.0009766-10.6826172c3.7949219-2.730957,8.1572266-4.7958984,13.0888672-6.1933594
			c4.9296875-1.3979492,10.2167969-2.0981445,15.8613281-2.0981445c5.4013672,0,11,0.7949219,16.7939453,2.3818359
			s10.6425781,3.7260742,14.5488281,6.4150391c3.90625,2.6899414,5.859375,5.3955078,5.859375,8.1162109
			c0,1.6962891-0.8066406,3.3613281-2.4179688,4.9921875c-0.515625,0.5219727-1.0976562,0.5219727-1.7412109,0
			c-10.3642578-8.0273438-21.9970703-12.0419922-34.9013672-12.0419922c-3.7167969,0-7.2705078,0.440918-10.6611328,1.3212891
			c-3.390625,0.8818359-6.5371094,2.2036133-9.4394531,3.9658203c-2.9023438,1.7626953-5.2167969,4.2265625-6.9443359,7.3916016
			c-1.7275391,3.1660156-2.5908203,6.8374023-2.5908203,11.0136719c0.0644531,4.1777344,1.4667969,7.8979492,4.2050781,11.1601562
			c2.7392578,3.2636719,6.2607422,6.0209961,10.5634766,8.2734375c4.3037109,2.2519531,9.0810547,4.421875,14.3300781,6.5107422
			s10.4570312,4.3564453,15.625,6.8041992c5.1669922,2.4472656,9.8955078,5.2060547,14.1855469,8.2729492
			c4.2900391,3.0673828,7.7841797,7.0161133,10.4814453,11.8457031c2.6982422,4.8310547,4.046875,10.3134766,4.046875,16.4472656
			c0,5.7714844-1.21875,10.9101562-3.6572266,15.4179688c-2.4384766,4.5068359-5.6904297,8.0898438-9.7548828,10.7480469
			c-4.0654297,2.6582031-8.5361328,4.6523438-13.4130859,5.9814453c-4.8759766,1.3291016-9.9824219,1.9941406-15.3134766,1.9941406
			c-4.4804688,0-8.9443359-0.3701172-13.3925781-1.1103516c-4.4482422-0.7431641-8.6025391-1.8056641-12.4667969-3.1904297
			c-3.8632812-1.3857422-7.0126953-3.2402344-9.4482422-5.5605469c-2.4345703-2.3212891-3.6513672-4.9316406-3.6513672-7.8330078
			c0-1.1083984,0.3515625-2.3818359,1.0527344-3.8173828c0.4472656-0.7167969,1.0224609-0.8486328,1.7246094-0.3916016
			c4.6894531,3.5898438,10.2783203,6.4296875,16.7666016,8.5166016c6.4873047,2.0888672,12.8935547,3.1328125,19.2177734,3.1328125
			c9.1933594,0,16.8232422-2.2675781,22.8867188-6.8037109c6.0644531-4.5351562,9.0976562-10.4267578,9.0976562-17.6713867
			c0-3.9155273-0.8320312-7.4570312-2.4951172-10.621582s-3.9121094-5.8579102-6.7490234-8.0766602
			c-2.8359375-2.2182617-6.0800781-4.2587891-9.7314453-6.1186523s-7.4980469-3.590332-11.5400391-5.1894531
			c-4.0439453-1.5991211-8.0585938-3.2133789-12.0458984-4.8461914c-3.9873047-1.6313477-7.7958984-3.4746094-11.4257812-5.53125
			c-3.6298828-2.0556641-6.8554688-4.3227539-9.6757812-6.8041992c-2.8193359-2.4794922-5.0566406-5.5141602-6.7089844-9.1044922
			C1073.8095703,477.1728516,1072.984375,473.1582031,1072.984375,468.7192383z"/>
		<path class="st1" d="M1164.78125,444.5917969v-4.3085938c0-0.8300781,0.2773438-1.5,0.8300781-2.0112305
			c0.5537109-0.5097656,1.2880859-0.7661133,2.2001953-0.7661133h92.0839844c1.9541016,0,2.9326172,0.9262695,2.9326172,2.7773438
			v4.3085938c0,1.8525391-0.9794922,2.7773438-2.9355469,2.7773438h-40.9121094v118.3554688
			c0,0.9775391-0.2910156,1.7607422-0.8710938,2.3466797c-0.5800781,0.5869141-1.3535156,0.8798828-2.3212891,0.8798828h-3.9667969
			c-0.9677734,0-1.7431641-0.2929688-2.3222656-0.8798828c-0.5800781-0.5859375-0.8701172-1.3691406-0.8701172-2.3466797
			V447.3691406h-40.8144531c-0.9140625,0-1.6474609-0.2548828-2.2011719-0.7661133
			C1165.0585938,446.09375,1164.78125,445.421875,1164.78125,444.5917969z"/>
		<path class="st1" d="M1282.0664062,503.7167969v-62.9882812c0-2.1484375,1.0410156-3.2226562,3.125-3.2226562h4.0039062
			c0.9765625,0,1.7578125,0.2929688,2.34375,0.8789062s0.8789062,1.3671875,0.8789062,2.34375v66.9921875
			c0.0644531,8.1391602,0.8300781,15.3808594,2.2949219,21.7285156s3.4179688,11.4912109,5.859375,15.4296875
			c2.4414062,3.9404297,5.3544922,7.1777344,8.7402344,9.7167969c3.3847656,2.5390625,6.8515625,4.296875,10.4003906,5.2734375
			c3.5478516,0.9765625,7.3730469,1.4648438,11.4746094,1.4648438c3.3203125,0,6.4941406-0.3417969,9.5214844-1.0253906
			s6.0380859-1.8066406,9.0332031-3.3691406c2.9941406-1.5625,5.6962891-3.7255859,8.1054688-6.4941406
			c2.4082031-2.7666016,4.5410156-6.0546875,6.3964844-9.8632812s3.3203125-8.5112305,4.3945312-14.1113281
			c1.0742188-5.5986328,1.6113281-11.8486328,1.6113281-18.75v-66.9921875c0-0.9765625,0.2929688-1.7578125,0.8789062-2.34375
			s1.3671875-0.8789062,2.34375-0.8789062h4.0039062c2.0830078,0,3.125,1.0742188,3.125,3.2226562v62.9882812
			c-0.7167969,45.2490234-17.0898438,67.8710938-49.1210938,67.8710938
			C1299.1230469,571.5878906,1282.6523438,548.9658203,1282.0664062,503.7167969z"/>
		<path class="st1" d="M1420.4453125,564.1660156v-123.4375c0-0.9765625,0.2929688-1.7578125,0.8789062-2.34375
			s1.3671875-0.8789062,2.34375-0.8789062h17.1875c54.2314453,0,81.3476562,22.2504883,81.3476562,66.7480469
			c0,20.2636719-6.4296875,36.340332-19.2871094,48.2304688c-12.8583984,11.8896484-30.8105469,17.8339844-53.8574219,17.8339844
			c-0.3261719,0-0.8466797,0-1.5625,0c-2.8652344,0-5.0292969-0.0166016-6.4941406-0.0488281
			c-1.4648438-0.0332031-3.4511719-0.0976562-5.9570312-0.1953125c-2.5068359-0.0976562-4.4599609-0.2773438-5.859375-0.5371094
			c-1.4003906-0.2607422-2.8652344-0.6005859-4.3945312-1.0253906c-1.5302734-0.4228516-2.6367188-1.0087891-3.3203125-1.7578125
			C1420.7871094,566.0068359,1420.4453125,565.1425781,1420.4453125,564.1660156z M1430.796875,559.0898438
			c4.6220703,0.6494141,9.9609375,0.9746094,16.015625,0.9746094c20.5722656,0,36.5556641-4.6015625,47.9492188-13.8056641
			c11.3925781-9.2045898,17.0898438-23.4013672,17.0898438-42.5908203c0-5.6582031-0.5048828-10.8457031-1.5136719-15.5625
			c-1.0097656-4.7148438-2.3769531-8.8457031-4.1015625-12.3916016c-1.7255859-3.5444336-3.9228516-6.7475586-6.5917969-9.6098633
			c-2.6699219-2.862793-5.453125-5.269043-8.3496094-7.2207031c-2.8974609-1.9516602-6.3154297-3.6420898-10.2539062-5.0732422
			c-3.9394531-1.4316406-7.7314453-2.5532227-11.3769531-3.3662109c-3.6464844-0.8134766-7.8125-1.4482422-12.5-1.902832
			s-9.0009766-0.7646484-12.9394531-0.9277344c-3.9394531-0.1616211-8.4150391-0.2441406-13.4277344-0.2441406V559.0898438z"/>
		<path class="st1" d="M1552.5742188,565.7285156v-125c0-0.9765625,0.2929688-1.7578125,0.8789062-2.34375
			s1.3671875-0.8789062,2.34375-0.8789062h3.90625c0.9765625,0,1.7578125,0.2929688,2.34375,0.8789062
			s0.8789062,1.3671875,0.8789062,2.34375v125c0,0.9765625-0.2929688,1.7578125-0.8789062,2.34375
			s-1.3671875,0.8789062-2.34375,0.8789062h-3.90625c-0.9765625,0-1.7578125-0.2929688-2.34375-0.8789062
			S1552.5742188,566.7050781,1552.5742188,565.7285156z"/>
		<path class="st1" d="M1592.515625,502.8867188c0-8.6123047,1.3339844-16.8974609,4.0009766-24.8579102
			c2.6669922-7.9589844,6.5703125-15.2011719,11.7099609-21.7255859
			c5.1386719-6.5249023,11.9199219-11.7431641,20.3457031-15.6586914
			c8.4238281-3.9155273,17.9384766-5.8730469,28.5429688-5.8730469c10.4248047,0,19.8222656,1.9086914,28.1953125,5.7250977
			c8.3710938,3.8178711,15.1640625,8.972168,20.3769531,15.4633789c5.2119141,6.4912109,9.1855469,13.8305664,11.9228516,22.0185547
			c2.7353516,8.1875,4.1044922,16.8164062,4.1044922,25.8847656c0,6.8222656-0.8144531,13.4643555-2.4433594,19.9277344
			c-1.6289062,6.4638672-4.1865234,12.6191406-7.671875,18.4667969
			c-3.4863281,5.8466797-7.7050781,10.9462891-12.6572266,15.2978516c-4.9511719,4.3535156-11.0273438,7.8125-18.2265625,10.3798828
			c-7.1992188,2.5644531-15.0664062,3.8476562-23.6005859,3.8476562c-8.3925781,0-16.1347656-1.2509766-23.2255859-3.7519531
			s-13.1572266-5.9111328-18.1992188-10.2314453c-5.0410156-4.3193359-9.3193359-9.4033203-12.8320312-15.2509766
			c-3.5126953-5.847168-6.1162109-12.1152344-7.8066406-18.8081055
			C1593.3613281,517.0498047,1592.515625,510.0981445,1592.515625,502.8867188z M1602.8671875,502.8867188
			c0,5.8652344,0.7158203,11.6152344,2.1503906,17.2514648c1.4335938,5.6367188,3.6494141,10.9790039,6.6464844,16.027832
			c2.9970703,5.0507812,6.5976562,9.4804688,10.7998047,13.2919922s9.2851562,6.8427734,15.2480469,9.0898438
			c5.9638672,2.2490234,12.4296875,3.3720703,19.4033203,3.3720703c6.9716797,0,13.4384766-1.0742188,19.4013672-3.2255859
			c5.9628906-2.1494141,11.0458984-5.0654297,15.2480469-8.7480469c4.2021484-3.6796875,7.8037109-7.9970703,10.8007812-12.9501953
			c2.9960938-4.9511719,5.2119141-10.2446289,6.6464844-15.8813477c1.4345703-5.6362305,2.1513672-11.4516602,2.1513672-17.4467773
			c0-5.8637695-0.7167969-11.6132812-2.1513672-17.25s-3.6503906-10.9785156-6.6464844-16.0292969
			c-2.9970703-5.0493164-6.5986328-9.4804688-10.8007812-13.2919922s-9.2851562-6.8408203-15.2480469-9.0898438
			c-5.9628906-2.2475586-12.4296875-3.3720703-19.4013672-3.3720703c-6.9736328,0-13.4394531,1.0756836-19.4033203,3.2255859
			c-5.9628906,2.1513672-11.0458984,5.0673828-15.2480469,8.7480469
			c-4.2021484,3.6816406-7.8027344,7.9985352-10.7998047,12.9501953c-2.9970703,4.953125-5.2128906,10.2460938-6.6464844,15.8828125
			C1603.5830078,491.078125,1602.8671875,496.8930664,1602.8671875,502.8867188z"/>
	</g>
	<path class="st2" d="M910.5380859,671.5273438v-56.8125c0-0.4433594,0.1318359-0.7988281,0.3955078-1.0654297
		c0.2636719-0.265625,0.6152344-0.3994141,1.0546875-0.3994141h16.3476562c6.0053711,0,10.6567383,1.3583984,13.953125,4.0722656
		c3.2958984,2.7158203,4.9433594,6.3125,4.9433594,10.7929688c0,1.9267578-0.3076172,3.7705078-0.9228516,5.5332031
		s-1.6699219,3.4306641-3.1640625,5c-1.4941406,1.5703125-3.3398438,2.7109375-5.5371094,3.421875v0.2607422
		c2.1679688,0.3847656,4.0800781,1.0712891,5.7353516,2.0595703c1.6542969,0.9892578,2.9511719,2.1708984,3.8886719,3.5439453
		s1.640625,2.8046875,2.109375,4.2949219c0.46875,1.4912109,0.703125,3.0195312,0.703125,4.5839844
		c0,5.0830078-1.8457031,9.0498047-5.5371094,11.9013672c-3.6914062,2.8525391-9.0239258,4.2773438-15.9960938,4.2773438
		h-16.5234375c-0.4394531,0-0.7910156-0.1328125-1.0546875-0.3994141S910.5380859,671.9716797,910.5380859,671.5273438z
		 M915.1962891,640.6357422h13.7109375c4.1308594,0,7.4116211-1.1806641,9.84375-3.5429688
		c2.4316406-2.3613281,3.6474609-5.2353516,3.6474609-8.6210938c0-3.3271484-1.1865234-5.9482422-3.5595703-7.8642578
		s-5.9326172-2.8740234-10.6787109-2.8740234h-12.9638672V640.6357422z M915.1962891,668.5097656h15.0292969
		c4.862793,0,8.5400391-1.1123047,11.0302734-3.3359375c2.4902344-2.2226562,3.7353516-5.1582031,3.7353516-8.8046875
		s-1.171875-6.4697266-3.515625-8.4707031c-2.3442383-2.0009766-5.815918-3.0019531-10.4150391-3.0019531h-15.8642578V668.5097656z"
		/>
	<path class="st2" d="M955.40625,613.6943359c0.1464844-0.2958984,0.3955078-0.4443359,0.7470703-0.4443359h2.5927734
		c0.8789062,0,1.5673828,0.3994141,2.0654297,1.1982422l16.7431641,28.1845703l16.7431641-28.1845703
		c0.4980469-0.7988281,1.1865234-1.1982422,2.0654297-1.1982422H999c0.3515625,0,0.5859375,0.1484375,0.703125,0.4443359
		c0.0585938,0.0888672,0.0878906,0.1923828,0.0878906,0.3105469c0,0.2070312-0.0585938,0.4150391-0.1757812,0.6210938
		l-19.7314453,32.7119141v24.1894531c0,0.9765625-0.46875,1.4648438-1.40625,1.4648438h-1.8017578
		c-0.4394531,0-0.7910156-0.1328125-1.0546875-0.3994141s-0.3955078-0.6210938-0.3955078-1.0654297v-24.1894531
		l-19.7314453-32.7119141c-0.1171875-0.2060547-0.1757812-0.3994141-0.1757812-0.5771484
		C955.3183594,613.9013672,955.3476562,613.7832031,955.40625,613.6943359z"/>
	<path class="st2" d="M571.7687988,853.0730591c2.763855-1.9855347,5.1896362-4.0636597,7.2785645-6.234375
		c2.0875854-2.1719971,3.8238525-4.203186,5.2054443-6.0948486c1.3822632-1.894165,2.5481567-4.0953369,3.5009766-6.6073608
		c0.9521484-2.5120239,1.6588135-4.637085,2.1193237-6.3739014c0.4605713-1.7368774,0.8132324-4.0319214,1.0593872-6.8864746
		c0.244873-2.8533325,0.3831177-5.0862427,0.414856-6.7000122c0.0304565-1.6124878,0.0463257-4.0319214,0.0463257-7.2582397
		c0-0.4338379,0-0.7446899,0-0.9312134v-96.0326538c0-0.9299927,0.2733765-1.6746826,0.8201904-2.2329102
		s1.2781982-0.8373413,2.19104-0.8373413h3.7432861c0.9121704,0,1.642334,0.2791138,2.1891479,0.8373413
		c0.5474243,0.5582275,0.8220825,1.3029175,0.8220825,2.2329102v97.0565186
		c-0.0602417,4.9644165-0.2892456,9.3223877-0.6850586,13.0751953c-0.395874,3.7540283-1.09552,7.6299438-2.0990601,11.6314087
		c-1.0048218,4.0014648-2.3737183,7.5372925-4.1068115,10.6088257c-1.7349243,3.0702515-4.0299683,6.0478516-6.8845825,8.9328613
		c-2.855835,2.8850098-6.2489624,5.4744263-10.1793823,7.7695312c-0.5524902,0.3729858-1.0751953,0.5582275-1.5661621,0.5582275
		c-0.6762085,0-1.3213501-0.3108521-1.9347534-0.9299927l-1.9348145-2.3267822
		c-0.5524902-0.6825562-0.8290405-1.2877197-0.8290405-1.814209
		C570.9397583,853.987793,571.2163086,853.506958,571.7687988,853.0730591z"/>
	<path class="st2" d="M631.7127686,782.7277222v-48.1851807c0-1.6439209,0.7883301-2.4648438,2.3670044-2.4648438h3.0326538
		c0.7394409,0,1.3312378,0.2240601,1.7752686,0.6722412c0.4436035,0.4481201,0.6656494,1.0460205,0.6656494,1.7926025v51.2478638
		c0.0483398,6.2261963,0.628418,11.7659302,1.7380981,16.6222534c1.1096802,4.8562622,2.5890503,8.7908325,4.4381714,11.8036499
		c1.8491211,3.0137939,4.0552368,5.4907837,6.619873,7.4331055c2.5631104,1.9423218,5.1888428,3.2868042,7.8772583,4.0343628
		c2.6868286,0.746582,5.5845337,1.1204224,8.690979,1.1204224c2.5147705,0,4.9189453-0.2617798,7.2116699-0.7843018
		c2.2932129-0.5234985,4.5731201-1.3821411,6.8419189-2.5778809c2.2677002-1.1947021,4.3144531-2.8497925,6.1390991-4.9672852
		c1.8236694-2.1165161,3.4395752-4.6322632,4.8446045-7.5452271c1.4055786-2.9140015,2.5152588-6.5114136,3.3284912-10.7952881
		c0.8138428-4.2828979,1.2207031-9.0638428,1.2207031-14.343811v-51.2478638c0-0.746582,0.2220459-1.3444824,0.6656494-1.7926025
		c0.4435425-0.4481812,1.0352783-0.6722412,1.7752686-0.6722412h3.0326538c1.5776367,0,2.3670044,0.8209229,2.3670044,2.4648438
		v48.1851807c-0.543396,34.6143799-12.9443359,51.920105-37.2050171,51.920105
		C644.6316528,834.6478271,632.1567993,817.3421021,631.7127686,782.7277222z"/>
	<path class="st2" d="M736.522522,830.1663208v-95.6237793c0-0.746582,0.2220459-1.3444824,0.6655884-1.7926025
		c0.4440918-0.4481812,1.0358276-0.6722412,1.7753296-0.6722412h3.0325928c1.5776978,0,2.3670654,0.8209229,2.3670654,2.4648438
		v89.7957764h50.7406006c0.739502,0,1.3312378,0.2241211,1.7753296,0.6732788
		c0.4435425,0.4481201,0.6655884,1.0449829,0.6655884,1.7926025v3.3621216c0,0.746582-0.2220459,1.3444214-0.6655884,1.7926025
		c-0.4440918,0.4481201-1.0358276,0.6721802-1.7753296,0.6721802h-56.1402588c-0.739502,0-1.3312378-0.2240601-1.7753296-0.6721802
		C736.7445679,831.5107422,736.522522,830.9129028,736.522522,830.1663208z"/>
	<path class="st2" d="M812.1155396,830.1663208v-95.6237793c0-0.746582,0.2220459-1.3444824,0.6655884-1.7926025
		c0.4440918-0.4481812,1.0358887-0.6722412,1.7753296-0.6722412h2.9588013c0.7394409,0,1.3311768,0.2240601,1.7752686,0.6722412
		c0.4435425,0.4481201,0.6655884,1.0460205,0.6655884,1.7926025v95.6237793c0,0.746582-0.2220459,1.3444214-0.6655884,1.7926025
		c-0.4440918,0.4481201-1.0358276,0.6721802-1.7752686,0.6721802h-2.9588013c-0.7394409,0-1.3312378-0.2240601-1.7753296-0.6721802
		C812.3375854,831.5107422,812.1155396,830.9129028,812.1155396,830.1663208z"/>
	<path class="st2" d="M835.1931763,831.8814697c-0.0982666-0.2495117-0.1477051-0.4990234-0.1477051-0.7496338
		c0-0.34729,0.0738525-0.7210693,0.2215576-1.1203613l40.9032593-98.3829346
		c0.4924316-1.0949097,1.2578735-1.6428833,2.2932129-1.6428833h1.1834717c1.0353394,0,1.7992554,0.5479736,2.2927246,1.6428833
		l40.6073608,98.3880615c0.1481934,0.399231,0.2220459,0.746582,0.2220459,1.0460205
		c-0.0499268,0.2984009-0.1237793,0.5723877-0.2220459,0.8218994c-0.2958984,0.4981079-0.7155151,0.746582-1.2573853,0.746582
		h-3.4761963c-1.0852051,0-1.9234619-0.1252441-2.5151978-0.3748169c-0.5913086-0.2495117-1.060791-0.8483887-1.4050903-1.7976685
		l-9.3937988-23.3016968h-51.1842041l-9.3937988,23.3016968c-0.3952026,0.9492798-0.8759155,1.5481567-1.4421997,1.7976685
		c-0.5678711,0.2495728-1.3938599,0.3748169-2.4780884,0.3748169h-3.5505371
		C835.8587646,832.6311035,835.4396362,832.3815918,835.1931763,831.8814697z M856.4955444,799.6107178h44.8235474
		l-17.604126-43.6273193l-4.659729-12.8496704l-4.7340698,12.8496704L856.4955444,799.6107178z"/>
	<path class="st2" d="M1003.3179932,831.0654907V711.9539795c0-0.9299927,0.2765503-1.6746826,0.8284302-2.2329102
		c0.5531616-0.5582275,1.2902832-0.8373413,2.2113647-0.8373413h28.6535645
		c15.9703369,0,27.9467773,3.4584351,35.9332275,10.3753662c7.9838867,6.9182129,11.9764404,16.4245605,11.9764404,28.5215454
		c0,5.7954102-0.9362793,11.0617676-2.8100586,15.7978516c-1.8739014,4.7360229-4.7753906,9.0203857-8.7058105,12.8531494
		c-3.9317627,3.8327026-9.3059082,6.8547363-16.1239014,9.0661011c-6.8179932,2.2138672-14.8336182,3.3811035-24.046875,3.5066528
		c-5.2828369,0-11.3319702-0.2791138-18.1499634-0.838562v42.9123535c0,2.0388184-0.9832153,3.0575562-2.9484253,3.0575562
		h-3.7781982c-0.9210815,0-1.6582031-0.2791138-2.2113647-0.8373413
		C1003.5945435,832.7401733,1003.3179932,831.9954834,1003.3179932,831.0654907z M1013.0844116,778.3029785
		c4.7284546,0.8690186,10.1343384,1.3016968,16.2151489,1.3016968c15.1102295,0,26.1960449-2.8520508,33.2602539-8.5599365
		c7.0627441-5.7078247,10.5960693-13.3999634,10.5960693-23.0788574c0-8.8707275-2.9953613-16.0350342-8.9836426-21.4954834
		c-5.9881592-5.4579468-15.4019775-8.1881714-28.2386475-8.1881714h-22.8491821V778.3029785z"/>
	<path class="st2" d="M1078.8217773,833.8814697c-0.0977783-0.2495117-0.1477051-0.4990234-0.1477051-0.7496338
		c0-0.34729,0.0744629-0.7210693,0.2220459-1.1203613l40.902832-98.3829346
		c0.4929199-1.0949097,1.2578125-1.6428833,2.2937012-1.6428833h1.1834717c1.03479,0,1.7987061,0.5479736,2.2927246,1.6428833
		l40.6072998,98.3880615c0.1477051,0.399231,0.2220459,0.746582,0.2220459,1.0460205
		c-0.0499268,0.2984009-0.1242676,0.5723877-0.2220459,0.8218994c-0.2963867,0.4981079-0.7159424,0.746582-1.2578125,0.746582
		h-3.4761963c-1.0847168,0-1.9229736-0.1252441-2.5147705-0.3748169c-0.5917969-0.2495117-1.0612793-0.8483887-1.4055176-1.7976685
		l-9.3937988-23.3016968h-51.1837158l-9.3937988,23.3016968c-0.3951416,0.9492798-0.8759766,1.5481567-1.4422607,1.7976685
		c-0.5683594,0.2495728-1.3942871,0.3748169-2.4780273,0.3748169h-3.5505371
		C1079.487915,834.6311035,1079.0682373,834.3815918,1078.8217773,833.8814697z M1100.1241455,801.6107178h44.8240967
		l-17.604126-43.6273193l-4.65979-12.8496704l-4.7340088,12.8496704L1100.1241455,801.6107178z"/>
	<path class="st2" d="M1181.5609131,832.1663208v-95.6237793c0-0.746582,0.2210693-1.3444824,0.6640625-1.7926025
		c0.4440918-0.4481812,1.0349121-0.6722412,1.774292-0.6722412h22.6813965c5.3665771,0,10.2055664,0.5245361,14.5150146,1.5725708
		c4.3103027,1.0491333,7.9179688,2.4841919,10.8248291,4.3063354c2.9057617,1.8231201,5.3319092,3.9834595,7.2772217,6.4797974
		c1.9454346,2.4963989,3.348999,5.1313477,4.2105713,7.90271c0.8626709,2.7703857,1.2935791,5.7037354,1.2935791,8.8000488
		c0,6.8047485-2.003418,12.6398315-6.0083008,17.5073242c-4.0058594,4.8674927-9.3999023,8.2703857-16.1811523,10.206604
		l26.1831055,41.6116333c0.1965332,0.3493652,0.2963867,0.6477661,0.2963867,0.8963013
		c0,0.199646-0.0499268,0.399292-0.1477051,0.5979004c-0.199707,0.4481201-0.5948486,0.6721802-1.1876221,0.6721802h-3.6320801
		c-1.5328369,0-2.5706787-0.1364746-3.1135254-0.4104614c-0.5429688-0.2739868-1.1357422-0.9085083-1.7784424-1.9056396
		l-22.0936279-36.0831299c-1.3812256-2.3395386-3.255249-3.5108032-5.6223145-3.5108032h-22.1151123v39.4452515
		c0,1.6428833-0.7893066,2.4647827-2.3670654,2.4647827h-3.0330811c-0.739502,0-1.3311768-0.2240601-1.7752686-0.6721802
		C1181.782959,833.5107422,1181.5609131,832.9129028,1181.5609131,832.1663208z M1189.4014893,785.5496216h18.638916
		c9.4681396,0,16.6538086-2.0217285,21.5610352-6.0673218c4.90625-4.0465698,7.3598633-9.4935913,7.3598633-16.3431396
		c0-14.343811-10.9969482-21.5162354-32.9888916-21.5162354h-14.5709229V785.5496216z"/>
	<path class="st2" d="M1257.302124,833.8814697c-0.0987549-0.2495117-0.1477051-0.4990234-0.1477051-0.7496338
		c0-0.34729,0.0733643-0.7210693,0.2210693-1.1203613l40.9038086-98.3829346
		c0.4919434-1.0949097,1.2578125-1.6428833,2.2926025-1.6428833h1.1835938c1.0357666,0,1.7996826,0.5479736,2.2926025,1.6428833
		l40.6074219,98.3880615c0.1486816,0.399231,0.2220459,0.746582,0.2220459,1.0460205
		c-0.0499268,0.2984009-0.123291,0.5723877-0.2220459,0.8218994c-0.2954102,0.4981079-0.7149658,0.746582-1.2568359,0.746582
		h-3.4761963c-1.0858154,0-1.9239502-0.1252441-2.5157471-0.3748169c-0.5906982-0.2495117-1.0603027-0.8483887-1.404541-1.7976685
		l-9.3937988-23.3016968h-51.1846924l-9.3937988,23.3016968c-0.3952637,0.9492798-0.8759766,1.5481567-1.4422607,1.7976685
		c-0.5673828,0.2495728-1.3933105,0.3748169-2.4780273,0.3748169h-3.5506592
		C1257.9672852,834.6311035,1257.548584,834.3815918,1257.302124,833.8814697z M1278.6044922,801.6107178h44.822998
		l-17.6040039-43.6273193l-4.65979-12.8496704l-4.7341309,12.8496704L1278.6044922,801.6107178z"/>
	<path class="st2" d="M1345.6170654,734.8242798c0.24646-0.4970093,0.6660156-0.746582,1.2578125-0.746582h4.3634033
		c1.4798584,0,2.6379395,0.6722412,3.4771729,2.0166626l28.1804199,47.4376221l28.1813965-47.4376221
		c0.8382568-1.3444214,1.9973145-2.0166626,3.4761963-2.0166626h4.4377441c0.5917969,0,0.9859619,0.2495728,1.1834717,0.746582
		c0.098877,0.1497192,0.1477051,0.3248901,0.1477051,0.522522c0,0.3493042-0.0987549,0.6986694-0.2954102,1.0460205
		l-33.2108154,55.0581055v40.7153931c0,1.6428833-0.7894287,2.4647827-2.3670654,2.4647827h-3.0321045
		c-0.739502,0-1.3311768-0.2240601-1.7752686-0.6721802c-0.4440918-0.4481812-0.6661377-1.0460205-0.6661377-1.7926025v-40.7153931
		l-33.2109375-55.0581055c-0.1975098-0.3473511-0.2952881-0.6722412-0.2952881-0.9706421
		C1345.4693604,735.173645,1345.5181885,734.973999,1345.6170654,734.8242798z"/>
	<g>
	</g>
	<line class="st3" x1="187.1446228" y1="394.9335938" x2="1732.2989502" y2="394.9335938"/>
	<line class="st4" x1="565.1774902" y1="876.0839233" x2="1390.2674561" y2="876.0839233"/>
</g>
<g id="Layer_2">
	<circle class="st5" cx="1213.0892334" cy="970.0206909" r="9.6006813"/>
	<circle class="st5" cx="1094.5421143" cy="992.9824829" r="9.6006813"/>
	<circle class="st5" cx="836.7371216" cy="992.9824829" r="9.6006813"/>
	<circle class="st5" cx="724.9102173" cy="970.6171265" r="9.6006813"/>
	<circle class="st5" cx="610.8467407" cy="933.0432739" r="9.6006813"/>
	<circle class="st5" cx="1319.3887939" cy="931.5522461" r="9.6006813"/>
	<g>
		<path class="st6" d="M611.0130005,927.0791626c30.4169312,39.3630371-37.9884033,48.3092041-37.9882812,11.2155762
			c0.000061-38.119873,33.5809326-37.1594238,33.5809326-37.1594238l283.5273438,3.5784302
			c0,0-3.1835327,99.3220825,75.1477051,129.7192383c59.93927,23.2600098,110.0376587,8.946167,131.5084839-4.4730225
			c21.4708252-13.4192505,48.8789062-56.0472412,73.3585205-79.6207886
			c16.8117676-16.1896973,46.5200195-27.7330933,63.5177002-1.7892456
			c19.612793,29.9353638-3.5784912,45.6253662-18.7869873,38.4684448
			c-7.2207031-3.3979492-10.7353516-8.946167-5.3676758-22.3653564"/>
		<path class="st6" d="M965.2807007,1004.9107056c0,0,34.8904419-39.3630981,34.8900146-67.9907837
			c-0.0002441-17.208252-3.5784302-32.208374-34.8900146-32.208374c-22.0671387,0-35.9136963,6.9009399-33.9953613,33.9976196
			C933.6709595,972.406311,965.2807007,1004.9107056,965.2807007,1004.9107056z"/>
		<path class="st6" d="M842.420166,993.5789185c0,0,42.3451538,22.6635742,48.9056396-23.5582275
			c6.5605469-46.2218018-58.4481812-54.5715332-77.5333252-33.100769s-21.4707642,59.0446167,16.6995239,88.2686768
			c38.1702271,29.2241211,111.3517456,28.34021,152.6810303,0.0001221
			c20.8743286-14.3139038,53.6769409-34.5918579,56.6588745-123.4569702l271.9327393-0.7771606
			c14.34375,0.1477661,28.2637939,6.0476074,37.5543213,16.9769287c8.4489746,9.9391479,13.567627,26.5366211,0.2469482,38.8561401
			c-17.6320801,16.3067017-58.6451416-5.5549927-33.5959473-27.6210938"/>
		<path class="st6" d="M1123.1323242,1004.9107056c0,0,27.631958-48.9056396-12.3275146-73.3584595
			s-72.9178467,5.5258179-73.3583984,32.446228c-0.3182373,19.4414673,26.2420654,51.647583,59.0445557,28.9840088"/>
		<path class="st6" d="M804.1213379,991.984375c0,0-53.2561646-58.5315552-88.1401367-52.0823975
			c-35.4863892,6.5604858-31.3115234,43.5379639-10.1389771,47.7128296s19.6815186-18.1905518,19.6815186-18.1905518"/>
		<path class="st6" d="M964.9017944,1102.2000732"/>
		<path class="st6" d="M964.0598145,1049.220459"/>
	</g>
	<circle class="st5" cx="1340.598999" cy="306.2721252" r="10.0631952"/>
	<circle class="st5" cx="1505.7559814" cy="308.514801" r="10.0631952"/>
	<circle class="st5" cx="1669.2712402" cy="333.1372681" r="10.0631952"/>
	<circle class="st5" cx="1261.8806152" cy="134.6827698" r="10.0631952"/>
	<path class="st6" d="M1050.5474854,367.6877747c0,0,75.9904785-61.1660156,125.4237061-108.4500427
		c62.6588135-59.9344635,189.3383789-62.6587524,219.3056641,35.415802
		c29.9671631,98.074585,163.6563721,81.3101196,177.0791016,8.1728821
		c8.0235596-43.7188416-28.2911377-119.6611938-104.5714111-76.0724945
		c-47.6016846,27.2009888-15.2823486,125.2918549,41.9125977,85.6075287"/>
	<path class="st6" d="M1261.786499,138.634613c0,0-13.4864502,33.2526245-38.1401367,21.794342
		c-28.9952393-13.47612-21.7944336-47.6751328,0-59.9344559c21.7943115-12.2593231,79.017334-9.9063873,64.020874,57.2101669
		c-12.7037354,56.8554688-83.5510254,79.6884766-83.5510254,79.6884766"/>
	<path class="st6" d="M1375.7568359,257.1478577c0,0,37.2279053,79.1239319-29.517334,105.9899597
		c-66.7451172,26.8659973-88.1452637-48.9964905-57.6940918-73.0429077
		c30.4511719-24.0464478,56.3320312,10.0072327,56.3320312,10.0072327"/>
	<path class="st6" d="M993.4435425,368.8170471h685.1598511c0,0,35.4157715-3.3318787,32.6915283-40.1098328
		c-2.7243652-36.7779541-37.8024902-34.6604614-45.6638184-27.4979553
		c-4.40271,4.0113831-13.3758545,22.4988708,2.9698486,31.6903076"/>
	<path class="st5" d="M1188.2304688,333.1372681c0,0,8.2030029-76.8439941,42.2265625-43.0423584
		C1262.4675293,321.8964844,1188.2304688,333.1372681,1188.2304688,333.1372681z"/>
	<path class="st5" d="M967.7211304,1054.7056885c0,0,48.53302,60.1337891,0.5767822,60.2943115"/>
	<path class="st5" d="M969.7421875,1054.7056885c0,0-48.5330811,60.1337891-0.5768433,60.2943115"/>
	<circle class="st5" cx="583.1950073" cy="307.1982117" r="10.0631952"/>
	<circle class="st5" cx="418.0379944" cy="309.4408875" r="10.0631952"/>
	<circle class="st5" cx="254.5226746" cy="334.0633545" r="10.0631952"/>
	<circle class="st5" cx="660.9133911" cy="135.6088715" r="10.0631952"/>
	<path class="st6" d="M873.246521,368.6138916c0,0-75.9904785-61.1660461-125.4237671-108.4500732
		c-62.6587524-59.9344482-189.3383789-62.6587524-219.305603,35.4158325
		c-29.9672546,98.0745544-163.6563721,81.3100891-177.0791016,8.1728821
		c-8.0236206-43.7188721,28.2911072-119.6612244,104.5713196-76.072525
		c47.6017456,27.2009888,15.2824097,125.2918549-41.9125671,85.6075287"/>
	<path class="st6" d="M662.0075073,139.5606995c0,0,13.4864502,33.2526398,38.1401367,21.7943573
		c28.9952393-13.47612,21.7943115-47.6751404,0-59.9344635c-21.7943726-12.2593231-79.017395-9.9063873-64.0209351,57.2101593
		c12.7037354,56.8554688,83.5510254,79.6884766,83.5510254,79.6884766"/>
	<path class="st6" d="M548.0371094,258.0739441c0,0-37.2278748,79.1239624,29.5172729,105.9899597
		c66.7452393,26.8659973,88.1453247-48.9964905,57.6941528-73.0429077
		c-30.4511719-24.0464478-56.3319702,10.0072327-56.3319702,10.0072327"/>
	<path class="st6" d="M930.3504028,369.7431335h-685.15979c0,0-35.4158173-3.3318787-32.6915131-40.1098328
		c2.7242889-36.7779541,37.8024445-34.6604614,45.6637573-27.4979248c4.40271,4.0113525,13.3759155,22.4988708-2.9698334,31.6902771
		"/>
	<path class="st5" d="M735.5634155,334.0633545c0,0-8.2028809-76.8439941-42.2265015-43.0423584
		C661.326416,322.8225708,735.5634155,334.0633545,735.5634155,334.0633545z"/>
	<path class="st5" d="M872.2265015,371.8995667l-5-34c0,0,31,16.6666565,36,9.5s3-25.1666565,1.666687-44.1666565
		c0,0,28,36.333313,34.333313,34.333313s17.333313-33.333313,23.333313-60.6666565c0,0,7.666687,59.3333435,19.666687,59.3333435
		s34.666687-32.666687,34.666687-32.666687s-5.666687,43.666687,4.666626,44c10.333374,0.3333435,17.666626,3.3333435,35.333374-10
		c0,0-9,32-6,34.3333435H872.2265015z"/>
	<circle class="st5" cx="962.1599121" cy="266.6729126" r="15.7565002"/>
	<circle class="st5" cx="1019.0888672" cy="297.0935974" r="8.1854391"/>
	<circle class="st5" cx="901.5888672" cy="295.9081726" r="8.1854391"/>
	<circle class="st5" cx="863.8249512" cy="334.321106" r="5.421556"/>
	<circle class="st5" cx="1059.8249512" cy="334.321106" r="5.421556"/>
	<g>
	</g>
	<path class="st2" d="M963.7217407,887.3634033"/>
	<path class="st7" d="M984.7217407-326.5705872"/>
</g>
</svg>
